<?xml version="1.0" encoding="UTF-8" standalone="no"?>
<!-- Created with Inkscape (http://www.inkscape.org/) -->

<svg
   xmlns:dc="http://purl.org/dc/elements/1.1/"
   xmlns:cc="http://creativecommons.org/ns#"
   xmlns:rdf="http://www.w3.org/1999/02/22-rdf-syntax-ns#"
   xmlns:svg="http://www.w3.org/2000/svg"
   xmlns="http://www.w3.org/2000/svg"
   xmlns:xlink="http://www.w3.org/1999/xlink"
   xmlns:sodipodi="http://sodipodi.sourceforge.net/DTD/sodipodi-0.dtd"
   xmlns:inkscape="http://www.inkscape.org/namespaces/inkscape"
   width="196.33333"
   height="20.526955"
   viewBox="0 0 51.946525 5.4310902"
   version="1.1"
   id="svg3817"
   inkscape:version="0.92.3 (2405546, 2018-03-11)"
   sodipodi:docname="line-break2.svg">
  <defs
     id="defs3811">
    <linearGradient
       inkscape:collect="always"
       id="linearGradient3850">
      <stop
         style="stop-color:#aaaaff;stop-opacity:1"
         offset="0"
         id="stop3846" />
      <stop
         style="stop-color:#fcbaf8;stop-opacity:1"
         offset="1"
         id="stop3848" />
    </linearGradient>
    <linearGradient
       inkscape:collect="always"
       xlink:href="#linearGradient3850"
       id="linearGradient3852"
       x1="79.860031"
       y1="137.3559"
       x2="131.80212"
       y2="137.43529"
       gradientUnits="userSpaceOnUse" />
    <linearGradient
       inkscape:collect="always"
       xlink:href="#linearGradient3850"
       id="linearGradient3854"
       gradientUnits="userSpaceOnUse"
       x1="79.860031"
       y1="137.3559"
       x2="131.80212"
       y2="137.43529" />
    <linearGradient
       inkscape:collect="always"
       xlink:href="#linearGradient3850"
       id="linearGradient3856"
       gradientUnits="userSpaceOnUse"
       x1="79.860031"
       y1="137.3559"
       x2="131.80212"
       y2="137.43529" />
    <linearGradient
       inkscape:collect="always"
       xlink:href="#linearGradient3850"
       id="linearGradient3858"
       gradientUnits="userSpaceOnUse"
       x1="79.860031"
       y1="137.3559"
       x2="131.80212"
       y2="137.43529" />
    <linearGradient
       inkscape:collect="always"
       xlink:href="#linearGradient3850"
       id="linearGradient3860"
       gradientUnits="userSpaceOnUse"
       x1="79.860031"
       y1="137.3559"
       x2="131.80212"
       y2="137.43529" />
    <linearGradient
       inkscape:collect="always"
       xlink:href="#linearGradient3850"
       id="linearGradient3862"
       gradientUnits="userSpaceOnUse"
       x1="79.860031"
       y1="137.3559"
       x2="131.80212"
       y2="137.43529" />
    <linearGradient
       inkscape:collect="always"
       xlink:href="#linearGradient3850"
       id="linearGradient3864"
       gradientUnits="userSpaceOnUse"
       x1="79.860031"
       y1="137.3559"
       x2="131.80212"
       y2="137.43529" />
    <linearGradient
       inkscape:collect="always"
       xlink:href="#linearGradient3850"
       id="linearGradient3866"
       gradientUnits="userSpaceOnUse"
       x1="79.860031"
       y1="137.3559"
       x2="131.80212"
       y2="137.43529" />
  </defs>
  <sodipodi:namedview
     id="base"
     pagecolor="#ffffff"
     bordercolor="#666666"
     borderopacity="1.0"
     inkscape:pageopacity="0.0"
     inkscape:pageshadow="2"
     inkscape:zoom="1.979899"
     inkscape:cx="131.50771"
     inkscape:cy="3.8012625"
     inkscape:document-units="px"
     inkscape:current-layer="layer1"
     showgrid="false"
     units="px"
     fit-margin-top="0"
     fit-margin-left="0"
     fit-margin-right="0"
     fit-margin-bottom="0"
     inkscape:window-width="1680"
     inkscape:window-height="1027"
     inkscape:window-x="-8"
     inkscape:window-y="-8"
     inkscape:window-maximized="1" />
  <metadata
     id="metadata3814">
    <rdf:RDF>
      <cc:Work
         rdf:about="">
        <dc:format>image/svg+xml</dc:format>
        <dc:type
           rdf:resource="http://purl.org/dc/dcmitype/StillImage" />
        <dc:title></dc:title>
      </cc:Work>
    </rdf:RDF>
  </metadata>
  <g
     inkscape:label="Layer 1"
     inkscape:groupmode="layer"
     id="layer1"
     transform="translate(-77.919777,-131.25035)">
    <g
       id="g3830"
       transform="translate(-1.984375,-3.5907734)"
       style="fill:url(#linearGradient3852);fill-opacity:1">
      <path
         style="fill:url(#linearGradient3854);fill-opacity:1;stroke-width:0.26458335"
         d="m 91.545819,140.03473 c -0.363802,-0.12393 -1.710552,-0.88828 -2.992777,-1.69856 -1.282225,-0.81029 -2.754622,-1.61295 -3.271994,-1.7837 -1.287987,-0.42507 -3.009229,-0.15772 -3.588255,0.55735 -0.596002,0.73603 -0.585752,0.92566 0.08637,1.59778 0.391248,0.39125 0.741669,0.50452 1.202793,0.38878 0.852944,-0.21407 1.277814,0.0482 0.871397,0.53789 -0.315753,0.38046 -1.971547,0.50643 -2.746722,0.20897 -0.552501,-0.21202 -1.202479,-1.47247 -1.202479,-2.33188 0,-1.0093 1.263043,-2.25179 2.591211,-2.54904 1.546669,-0.34615 3.970703,0.0759 5.316824,0.92563 0.592506,0.37403 1.136122,0.68006 1.208038,0.68006 0.07192,0 0.315463,-0.35719 0.541219,-0.79375 0.496828,-0.96076 1.789288,-1.12349 2.239649,-0.28198 0.381734,0.71328 0.341707,1.7484 -0.08118,2.09937 -0.421177,0.34954 -0.70326,0.13352 -0.70326,-0.53857 0,-0.26679 -0.119063,-0.48507 -0.264583,-0.48507 -0.491873,0 -0.268645,0.97668 0.384241,1.68115 1.060764,1.14459 2.58173,0.98082 7.364179,-0.79291 3.13422,-1.16243 4.37938,-1.49928 5.62362,-1.52135 1.56941,-0.0278 1.7447,0.0376 3.46937,1.29457 0.25873,0.18857 1.40724,-0.0975 3.99779,-0.99583 3.27267,-1.13486 3.86595,-1.26005 5.95553,-1.25678 1.97504,0.003 2.46775,0.0962 3.3073,0.62484 2.36902,1.49172 4.76666,2.78702 5.71001,3.08478 1.85619,0.58587 4.14004,-0.16416 4.14004,-1.35963 0,-0.68274 -1.1202,-1.34897 -1.92749,-1.14635 -0.81814,0.20534 -1.12943,-0.22193 -0.56958,-0.78179 0.62429,-0.62429 2.07997,-0.52401 2.92329,0.20138 0.59473,0.51156 0.72031,0.83726 0.72031,1.86812 0,1.00296 -0.14011,1.38849 -0.71234,1.9601 -0.67846,0.67774 -0.83466,0.71076 -3.28524,0.69441 -2.10187,-0.014 -2.77549,-0.12231 -3.67943,-0.59153 -0.60859,-0.3159 -1.18117,-0.69514 -1.27239,-0.84274 -0.28833,-0.46653 -0.63705,-0.2938 -1.06067,0.52539 -0.33222,0.64243 -0.57953,0.79375 -1.29731,0.79375 -1.10232,0 -1.54174,-0.50122 -1.43272,-1.6342 0.10834,-1.12594 1.01024,-1.4362 1.01024,-0.34753 0,0.42501 0.12422,0.6615 0.31419,0.59818 0.59526,-0.19842 0.50755,-0.69344 -0.27854,-1.572 -0.73025,-0.81615 -0.90155,-0.87887 -2.33015,-0.85322 -1.09141,0.0196 -2.46968,0.35836 -4.71696,1.15933 -6.38289,2.275 -7.67519,2.43247 -9.54569,1.16311 -0.51087,-0.34669 -1.10104,-0.63034 -1.31148,-0.63034 -0.21045,0 -1.62597,0.4728 -3.145592,1.05067 -2.889815,1.09891 -6.157128,1.5713 -7.560779,1.09314 z m 14.155211,-2.40839 c 0.0944,-0.15269 -0.15079,-0.26287 -0.5797,-0.26053 -0.57708,0.003 -0.6545,0.0614 -0.34634,0.26053 0.50834,0.32851 0.723,0.32851 0.92604,0 z"
         id="path3844"
         inkscape:connector-curvature="0" />
      <path
         style="fill:url(#linearGradient3856);fill-opacity:1;stroke-width:0.26458335"
         d="m 91.351421,139.82515 c -0.47072,-0.26346 -1.770259,-1.06525 -2.887864,-1.78176 -1.117604,-0.7165 -2.518407,-1.47087 -3.112894,-1.67638 -1.968719,-0.68056 -4.123595,0.10206 -4.123595,1.49762 0,0.93932 0.569741,1.43611 1.612971,1.40645 1.096183,-0.0312 0.85191,0.5791 -0.275987,0.68949 -0.662263,0.0648 -1.053997,-0.0898 -1.63327,-0.64481 -1.093652,-1.04779 -1.045416,-2.25272 0.137536,-3.43567 0.837896,-0.8379 1.017115,-0.89958 2.613522,-0.89958 1.742697,0 3.168696,0.43214 4.465239,1.35318 0.937362,0.66588 1.092439,0.63548 1.504245,-0.29485 0.462958,-1.04589 1.659666,-1.12272 2.109507,-0.13543 0.307822,0.6756 0.177223,1.45835 -0.24332,1.45835 -0.129952,0 -0.236276,-0.24686 -0.236276,-0.54857 0,-0.75887 -0.899067,-0.56118 -1.010815,0.22227 -0.05543,0.38859 0.201527,0.88063 0.742296,1.4214 0.789293,0.78929 0.901933,0.82081 2.466024,0.69008 1.054024,-0.0881 2.960942,-0.62919 5.34312,-1.51612 2.03729,-0.75853 4.08447,-1.44152 4.54928,-1.51778 1.32336,-0.2171 2.72438,0.16055 3.43326,0.92545 l 0.64902,0.7003 1.50505,-0.4214 c 0.82778,-0.23177 2.69568,-0.85119 4.15089,-1.37648 3.40896,-1.23053 5.81742,-1.32872 7.33288,-0.29894 0.53538,0.3638 1.03505,0.66145 1.11037,0.66145 0.0753,0 1.02751,0.54068 2.11599,1.20151 2.49641,1.51561 4.37052,1.95737 5.77819,1.36203 0.55496,-0.23471 1.12931,-0.72163 1.30435,-1.1058 0.26988,-0.59231 0.2357,-0.76348 -0.24929,-1.24847 -0.32996,-0.32996 -0.89892,-0.56204 -1.37785,-0.56204 -1.12463,0 -0.85983,-0.55348 0.31267,-0.65353 2.24194,-0.1913 3.22345,2.34814 1.55277,4.01747 -0.79258,0.79193 -0.91397,0.82498 -3.00302,0.81758 -1.83006,-0.006 -2.39057,-0.11917 -3.51659,-0.70697 -0.73675,-0.38458 -1.49547,-0.88713 -1.68605,-1.11676 -0.48323,-0.58226 -0.72725,-0.52213 -0.91488,0.22544 -0.37045,1.476 -1.70038,1.9317 -2.42224,0.82999 -0.35085,-0.53545 -0.36572,-0.74681 -0.0885,-1.25677 l 0.33331,-0.61305 0.16011,0.66007 c 0.0881,0.36304 0.36325,0.69919 0.61153,0.747 0.7456,0.14359 0.59082,-1.43544 -0.2138,-2.18113 -1.38233,-1.28111 -2.82532,-1.13372 -8.4913,0.86731 -4.76431,1.68259 -5.76285,1.83995 -7.31598,1.15293 -0.65246,-0.28862 -1.26822,-0.65731 -1.36835,-0.81933 -0.30524,-0.49389 -1.04343,-0.34292 -4.32453,0.88446 -3.807712,1.42436 -6.108297,1.7415 -7.397769,1.01979 z m 15.011069,-2.19377 c 0,-0.36845 -1.19927,-0.62261 -1.9952,-0.42284 -0.36975,0.0928 -0.60085,0.2843 -0.51355,0.42556 0.2081,0.33671 2.50875,0.33422 2.50875,-0.003 z"
         id="path3842"
         inkscape:connector-curvature="0" />
      <path
         style="fill:url(#linearGradient3858);fill-opacity:1;stroke-width:0.26458335"
         d="m 91.016652,139.58713 c -0.654844,-0.39302 -1.42875,-0.92416 -1.719792,-1.18031 -0.291041,-0.25615 -1.338279,-0.90765 -2.327194,-1.44778 -1.641831,-0.89674 -1.938302,-0.97191 -3.41279,-0.86525 -1.711973,0.12383 -2.594391,0.74505 -2.594391,1.82645 0,0.86491 1.005414,1.63491 1.900905,1.45581 0.561035,-0.1122 0.75636,-0.0631 0.679319,0.17088 -0.320735,0.97399 -2.568348,0.17935 -3.096034,-1.0946 -0.42391,-1.0234 0.02656,-2.01829 1.30956,-2.89225 0.782342,-0.53292 1.154425,-0.61089 2.397805,-0.50248 1.394488,0.12158 3.977314,1.17348 4.345961,1.76996 0.324322,0.52476 0.960284,0.25927 1.229612,-0.51333 0.342705,-0.98308 1.240988,-1.32275 1.7299,-0.65412 0.411276,0.56245 0.469054,1.70165 0.08631,1.70165 -0.145521,0 -0.264584,-0.2311 -0.264584,-0.51356 0,-0.70982 -0.499921,-0.952 -0.978096,-0.47382 -0.354477,0.35447 -0.346691,0.50659 0.07098,1.38677 1.004904,2.11768 2.84005,2.13682 8.230939,0.0859 4.200428,-1.59805 5.418358,-1.84979 6.856058,-1.41711 0.6453,0.19421 1.38786,0.61812 1.65015,0.94203 l 0.47688,0.58893 3.95123,-1.36894 c 2.17318,-0.75292 4.67434,-1.43875 5.55813,-1.52407 1.42114,-0.1372 1.78819,-0.0653 3.175,0.62184 0.86246,0.42734 2.32077,1.26961 3.2407,1.87172 2.13748,1.39901 3.2038,1.74142 4.96754,1.59516 1.66179,-0.13781 2.48799,-0.74541 2.48799,-1.82972 0,-0.95464 -1.02109,-1.68571 -2.00835,-1.43793 -0.50005,0.12551 -0.65832,0.079 -0.57651,-0.16927 0.30738,-0.93297 2.34313,-0.35568 3.09279,0.87705 0.46535,0.76521 0.47491,0.9054 0.11346,1.66338 -0.59038,1.23805 -1.94473,2.01209 -3.52056,2.01209 -1.47701,0 -3.80831,-0.90878 -5.08318,-1.98151 -0.91794,-0.77239 -1.1501,-0.70884 -1.3667,0.37412 -0.21578,1.0789 -1.10622,1.54072 -1.78546,0.92602 -0.54018,-0.48885 -0.68207,-1.56055 -0.24258,-1.83217 0.14944,-0.0924 0.26459,0.12434 0.26459,0.49794 0,0.8078 0.41928,1.11326 0.93763,0.68307 0.62473,-0.51848 0.44612,-1.30538 -0.5143,-2.2658 -1.37866,-1.37866 -2.64015,-1.27457 -8.34036,0.68816 -2.89286,0.99609 -5.04106,1.58726 -5.76783,1.58726 -1.13859,0 -2.42692,-0.4859 -3.28919,-1.24052 -0.38497,-0.33692 -0.6554,-0.30403 -2.24896,0.27348 -0.996252,0.36105 -2.692918,0.97495 -3.770368,1.36423 -2.935653,1.06065 -4.380875,1.12015 -5.846209,0.24068 z m 15.610418,-1.64329 c 0,-0.52513 -0.73902,-0.84667 -1.94601,-0.84667 -1.29425,0 -1.30488,0.007 -0.83212,0.52917 0.33892,0.3745 0.81491,0.52917 1.62851,0.52917 0.63229,0 1.14962,-0.0952 1.14962,-0.21167 z"
         id="path3840"
         inkscape:connector-curvature="0" />
      <path
         style="fill:url(#linearGradient3860);fill-opacity:1;stroke-width:0.26458335"
         d="m 92.074985,140.09526 c -0.218281,-0.0886 -1.349375,-0.78597 -2.513541,-1.5496 -3.031315,-1.9884 -4.174635,-2.50682 -5.528486,-2.50682 -1.577563,0 -2.483033,0.37637 -2.851611,1.18531 -0.383595,0.8419 0.04176,1.89897 0.903467,2.24523 0.565689,0.22732 0.568457,0.24098 0.05204,0.25686 -0.635748,0.0195 -1.58813,-0.79031 -1.831635,-1.55752 -0.24245,-0.7639 0.376545,-1.87673 1.451016,-2.60864 0.782342,-0.53292 1.154425,-0.61089 2.397805,-0.50248 1.394488,0.12158 3.977314,1.17348 4.345961,1.76996 0.324322,0.52476 0.960284,0.25927 1.229612,-0.51333 0.342705,-0.98308 1.240988,-1.32275 1.7299,-0.65412 0.509249,0.69644 0.430227,0.96193 -0.174,0.58458 -0.435415,-0.27192 -0.602049,-0.25064 -0.97753,0.12484 -0.426731,0.42673 -0.426822,0.50678 -0.0016,1.39852 0.302955,0.6353 0.775954,1.08303 1.440551,1.3636 1.267754,0.53519 2.857441,0.23741 6.858111,-1.28464 3.857035,-1.46741 5.418345,-1.82693 6.562235,-1.51108 1.51651,0.41873 1.28086,0.67839 -0.75545,0.83239 -1.06446,0.0805 -2.75766,0.44427 -3.76268,0.80836 -1.005015,0.36409 -2.660739,0.96281 -3.679385,1.33048 -1.931486,0.69715 -4.213865,1.06463 -4.894792,0.7881 z m 33.285185,-0.45567 c -0.82914,-0.34101 -1.88102,-0.93429 -2.33751,-1.3184 -0.95451,-0.80317 -1.1849,-0.74675 -1.40297,0.34359 -0.21578,1.0789 -1.10622,1.54072 -1.78546,0.92602 -0.27894,-0.25244 -0.50716,-0.63757 -0.50716,-0.85585 0,-0.32669 0.0927,-0.31298 0.5242,0.0775 0.42899,0.38823 0.5972,0.41383 0.92604,0.14091 0.64089,-0.5319 0.47077,-1.31103 -0.49774,-2.27954 -1.37866,-1.37866 -2.64015,-1.27457 -8.34036,0.68816 -4.75909,1.63868 -6.58519,1.9367 -7.54896,1.23198 -0.42814,-0.31306 -0.25996,-0.37422 1.41534,-0.51467 1.27509,-0.1069 3.18293,-0.60348 5.79312,-1.50786 2.14054,-0.74166 4.6217,-1.4189 5.51366,-1.50499 1.75603,-0.16948 1.82058,-0.14764 4.86053,1.64457 3.99252,2.3538 4.50298,2.553 6.26888,2.44633 1.12011,-0.0677 1.81087,-0.25482 2.18281,-0.59143 0.77106,-0.69779 0.70164,-1.83563 -0.15299,-2.50789 -0.52555,-0.41339 -0.58771,-0.54837 -0.25256,-0.54837 0.61344,0 1.74345,1.18456 1.74345,1.82761 0,1.58427 -1.73085,2.93954 -3.74019,2.92861 -0.63504,-0.003 -1.83299,-0.28529 -2.66213,-0.6263 z"
         id="path3838"
         inkscape:connector-curvature="0" />
      <path
         style="fill:url(#linearGradient3862);fill-opacity:1;stroke-width:0.26458335"
         d="m 92.47186,140.00759 c 0.08994,-0.14552 -0.02684,-0.26458 -0.259509,-0.26458 -0.583596,0 -2.229808,-0.87209 -3.153423,-1.67054 -1.290282,-1.11543 -3.846628,-2.29821 -4.967105,-2.29821 -2.376252,0 -3.91363,1.41637 -3.019153,2.78152 0.247407,0.37759 0.71078,0.79164 1.029719,0.9201 l 0.579888,0.23358 -0.576109,0.0168 c -0.326737,0.01 -0.822426,-0.29637 -1.145158,-0.70666 -0.739395,-0.93999 -0.54191,-2.06646 0.534159,-3.04689 0.678799,-0.61846 1.026149,-0.72673 2.315761,-0.72179 1.569869,0.006 3.223214,0.58705 4.47719,1.57343 0.760169,0.59795 1.064935,0.50744 1.417965,-0.4211 0.41521,-1.09208 1.722214,-1.14339 2.061079,-0.0809 0.07864,0.24655 -0.08518,0.1952 -0.47117,-0.14769 -0.58346,-0.51831 -0.596925,-0.51853 -0.964697,-0.0156 -0.46336,0.63368 -0.463655,0.78903 -0.0032,1.67947 1.065515,2.06048 2.577663,2.22086 6.793142,0.72048 5.811831,-2.06856 6.672371,-2.30185 7.846011,-2.12702 0.61507,0.0916 1.18064,0.26744 1.25683,0.39071 0.0762,0.12327 -0.33209,0.161 -0.90727,0.0839 -0.57518,-0.0771 -1.25982,-0.0473 -1.52141,0.0663 -0.2616,0.11363 -0.83282,0.2391 -1.26938,0.27882 -0.43657,0.0397 -2.04391,0.55998 -3.571877,1.15614 -1.527969,0.59616 -3.227248,1.15609 -3.776176,1.24428 -0.548929,0.0882 -1.061971,0.26379 -1.140095,0.39019 -0.07812,0.12641 -0.49923,0.22983 -0.935792,0.22983 -0.461792,0 -0.725363,-0.11065 -0.630229,-0.26458 z m 32.45523,-0.78226 c -1.06732,-0.5548 -2.0734,-1.14154 -2.23572,-1.30386 -0.47489,-0.47489 -0.68752,-0.3522 -1.09985,0.63463 -0.21366,0.51137 -0.58863,1.00657 -0.83326,1.10044 -0.57185,0.21944 -1.27722,-0.2256 -1.37562,-0.86793 -0.0742,-0.48442 -0.064,-0.4849 0.31075,-0.0145 0.57432,0.72075 1.33829,0.45983 1.43015,-0.48844 0.0545,-0.56317 -0.14738,-1.05879 -0.69982,-1.71762 -0.75562,-0.90115 -0.82525,-0.92515 -2.59022,-0.89268 -1.47629,0.0272 -2.59494,0.3102 -6.01278,1.52135 -3.30999,1.17294 -4.51443,1.48303 -5.68854,1.46454 l -1.48949,-0.0234 2.64584,-0.58791 c 1.45521,-0.32335 3.83646,-1.04289 5.29166,-1.59897 1.70641,-0.65208 3.26352,-1.05709 4.38548,-1.14067 1.56105,-0.1163 1.91414,-0.0436 3.43958,0.70841 0.93497,0.46091 2.58465,1.36432 3.66595,2.00757 1.10224,0.65571 2.47968,1.24658 3.13519,1.34488 3.12817,0.46909 5.32874,-1.98135 3.04551,-3.39135 -0.53995,-0.33344 -0.61395,-0.45787 -0.27535,-0.46302 0.75729,-0.0115 1.52135,0.96344 1.52135,1.94126 0,0.92945 -1.04166,2.28504 -1.75587,2.28504 -0.19843,0 -0.36079,0.11906 -0.36079,0.26458 0,0.14552 -0.56555,0.25601 -1.25677,0.24553 -0.91469,-0.0139 -1.78501,-0.29363 -3.19738,-1.02779 z"
         id="path3836"
         inkscape:connector-curvature="0" />
      <path
         style="fill:url(#linearGradient3864);fill-opacity:1;stroke-width:0.26458335"
         d="m 125.42978,139.46042 c -0.93637,-0.4331 -2.08929,-1.08248 -2.56204,-1.44306 -0.47274,-0.36058 -1.03904,-0.6556 -1.25844,-0.6556 -0.43048,0 -0.83754,-0.47455 -0.60583,-0.70626 0.078,-0.078 1.28167,0.47438 2.67474,1.22759 1.83714,0.99332 2.91375,1.40496 3.91951,1.49864 1.83182,0.17062 3.11358,-0.46237 3.55452,-1.75539 l 0.3158,-0.92604 0.007,0.79375 c 0.008,0.98699 -0.37901,1.509 -1.64736,2.22138 -1.32768,0.74572 -2.36375,0.68564 -4.39742,-0.25501 z m -33.222503,0.3585 c -0.291042,-0.07 -0.640198,-0.2327 -0.775904,-0.36156 -0.135705,-0.12886 0.146259,-0.12158 0.626587,0.0162 1.166786,0.33463 2.772994,-0.0295 7.028484,-1.59328 3.876476,-1.42452 5.103536,-1.71634 5.996266,-1.42602 0.48265,0.15695 0.18115,0.2759 -1.37413,0.54212 -1.09585,0.18758 -3.11991,0.78134 -4.497919,1.31947 -3.717851,1.45186 -5.566678,1.84867 -7.003384,1.50309 z m -4.281008,-2.49953 c -2.390174,-1.48135 -3.859921,-1.82466 -5.497678,-1.28415 -0.590123,0.19476 -1.187729,0.6529 -1.507065,1.15536 -0.466363,0.73379 -0.508582,0.7541 -0.355704,0.17116 0.09541,-0.36381 0.523222,-0.98888 0.950698,-1.38907 0.663249,-0.6209 0.999725,-0.72675 2.29441,-0.72179 1.571809,0.006 3.223353,0.58716 4.481773,1.57703 0.373255,0.29361 0.881602,0.53383 1.129661,0.53383 0.248058,0 0.586637,0.29765 0.752396,0.66146 0.165759,0.3638 0.214636,0.65608 0.108615,0.64951 -0.10602,-0.007 -1.166718,-0.61557 -2.357106,-1.35334 z m 19.362261,0.73047 c 1.45521,-0.32335 3.83646,-1.0512 5.29166,-1.61745 2.28489,-0.88909 2.94172,-1.03128 4.81475,-1.04228 1.42193,-0.008 2.28553,0.10363 2.50751,0.32517 0.27473,0.27419 0.17434,0.28066 -0.53232,0.0343 -1.30706,-0.45564 -3.03661,-0.11763 -7.6252,1.49024 -3.22267,1.12924 -4.4486,1.43969 -5.61275,1.42136 l -1.48949,-0.0234 z"
         id="path3834"
         inkscape:connector-curvature="0" />
      <path
         style="fill:url(#linearGradient3866);fill-opacity:1;stroke-width:0.26458335"
         d="m 127.46301,140.08545 c 0.32742,-0.0631 0.8632,-0.0631 1.19062,0 0.32742,0.0631 0.0595,0.11466 -0.59531,0.11466 -0.65484,0 -0.92273,-0.0516 -0.59531,-0.11466 z M 89.483597,138.2697 c -0.325855,-0.22824 -0.523915,-0.5259 -0.440132,-0.66146 0.280327,-0.45358 0.826906,-0.25309 1.131295,0.41498 0.347537,0.76276 0.147685,0.83403 -0.691163,0.24648 z m 16.013953,0.24142 c 0.17914,-0.0725 0.53632,-0.0769 0.79375,-0.01 0.25744,0.0671 0.11087,0.12638 -0.32569,0.13177 -0.43656,0.005 -0.64719,-0.0495 -0.46806,-0.12197 z m 15.59341,-1.32575 c -0.244,-0.244 -0.22124,-0.61736 0.0376,-0.61736 0.11771,0 0.44513,0.1748 0.72761,0.38846 0.50459,0.38165 0.50394,0.3886 -0.0376,0.39687 -0.30317,0.005 -0.63059,-0.071 -0.7276,-0.16797 z m -18.89015,-0.24805 c 0.0879,-0.0879 0.31612,-0.0973 0.50712,-0.0209 0.21107,0.0845 0.14837,0.14716 -0.15985,0.15986 -0.27892,0.0115 -0.43519,-0.0511 -0.34727,-0.13897 z m -18.658637,-1.60288 c 0.181901,-0.0734 0.479557,-0.0734 0.661458,0 0.181901,0.0734 0.03307,0.13346 -0.330729,0.13346 -0.363802,0 -0.51263,-0.0601 -0.330729,-0.13346 z"
         id="path3832"
         inkscape:connector-curvature="0" />
    </g>
  </g>
</svg>
